<svg xmlns="http://www.w3.org/2000/svg" viewBox="0 0 64 64" role="img" aria-label="Image converter icon">
  <rect width="64" height="64" rx="14" fill="#0f766e"/>
  <path d="M16 18a6 6 0 0 1 6-6h20a6 6 0 0 1 6 6v17a6 6 0 0 1-6 6H22a6 6 0 0 1-6-6V18Z" fill="#ecfeff"/>
  <path d="M21 35 29 25l6 7 4-5 7 8v1a3 3 0 0 1-3 3H22a3 3 0 0 1-3-3v-1h2Z" fill="#164e63"/>
  <circle cx="40" cy="21" r="4" fill="#14b8a6"/>
  <path d="M24 50h18" fill="none" stroke="#ecfeff" stroke-width="5" stroke-linecap="round"/>
  <path d="m39 44 7 6-7 6" fill="none" stroke="#ecfeff" stroke-width="5" stroke-linecap="round" stroke-linejoin="round"/>
</svg>
